<?xml version="1.0" encoding="UTF-8"?>
<svg width="400px" height="400px" viewBox="0 0 400 400" version="1.1" xmlns="http://www.w3.org/2000/svg" xmlns:xlink="http://www.w3.org/1999/xlink">
    <!-- Generator: Sketch 52.5 (67469) - http://www.bohemiancoding.com/sketch -->
    <title>twitter-avatar</title>
    <desc>Created with Sketch.</desc>
    <defs>
        <filter x="-5.7%" y="-5.7%" width="111.4%" height="111.4%" filterUnits="objectBoundingBox" id="filter-1">
            <feOffset dx="0" dy="0" in="SourceAlpha" result="shadowOffsetOuter1"></feOffset>
            <feGaussianBlur stdDeviation="5" in="shadowOffsetOuter1" result="shadowBlurOuter1"></feGaussianBlur>
            <feColorMatrix values="0 0 0 0 0   0 0 0 0 0   0 0 0 0 0  0 0 0 0.5 0" type="matrix" in="shadowBlurOuter1" result="shadowMatrixOuter1"></feColorMatrix>
            <feMerge>
                <feMergeNode in="shadowMatrixOuter1"></feMergeNode>
                <feMergeNode in="SourceGraphic"></feMergeNode>
            </feMerge>
        </filter>
        <circle id="path-2" cx="175" cy="175" r="175"></circle>
        <path d="M143.444264,204.18859 L48.8640447,150.178391 C41.1793689,145.792227 29.2388869,150.339095 29.0692001,161.474876 L27.3800446,272.326517 C27.2278136,282.316751 38.1695846,288.172311 46.839575,283.035188 L143.10895,226.193746 C151.696394,221.137762 151.908616,208.989231 143.444264,204.18859 Z" id="path-4"></path>
        <filter x="-5.7%" y="-3.7%" width="111.4%" height="110.3%" filterUnits="objectBoundingBox" id="filter-5">
            <feOffset dx="0" dy="2" in="SourceAlpha" result="shadowOffsetOuter1"></feOffset>
            <feGaussianBlur stdDeviation="2" in="shadowOffsetOuter1" result="shadowBlurOuter1"></feGaussianBlur>
            <feColorMatrix values="0 0 0 0 0   0 0 0 0 0   0 0 0 0 0  0 0 0 0.5 0" type="matrix" in="shadowBlurOuter1"></feColorMatrix>
        </filter>
    </defs>
    <g id="twitter-avatar" stroke="none" stroke-width="1" fill="none" fill-rule="evenodd">
        <rect fill="#000000" x="0" y="0" width="400" height="400"></rect>
        <g id="Group" filter="url(#filter-1)" transform="translate(25.000000, 25.000000)">
            <mask id="mask-3" fill="white">
                <use xlink:href="#path-2"></use>
            </mask>
            <use id="Mask" fill="#000000" xlink:href="#path-2"></use>
            <g mask="url(#mask-3)" id="logo-2">
                <g transform="translate(-3.216552, -16.025323)">
                    <g transform="translate(0.116808, 0.171754)">
                        <g id="Group" transform="translate(176.750000, 153.790000) rotate(-30.000000) translate(-176.750000, -153.790000) translate(87.500000, 0.000000)">
                            <path d="M143.444264,79.1285897 L48.8640447,25.118391 C41.1793689,20.7322269 29.2388869,25.2790952 29.0692001,36.4148765 L27.3800446,147.266517 C27.2278136,157.256751 38.1695846,163.112311 46.839575,157.975188 L143.10895,101.133746 C151.696394,96.0777622 151.908616,83.9292312 143.444264,79.1285897 Z" id="Shape" fill-opacity="0.287647192" fill="#444444" fill-rule="nonzero" transform="translate(88.525576, 91.670570) rotate(30.000000) translate(-88.525576, -91.670570) "></path>
                            <path d="M143.444264,120.815256 L48.8640447,66.8050576 C41.1793689,62.4188935 29.2388869,66.9657619 29.0692001,78.1015431 L27.3800446,188.953184 C27.2278136,198.943418 38.1695846,204.798978 46.839575,199.661855 L143.10895,142.820413 C151.696394,137.764429 151.908616,125.615898 143.444264,120.815256 Z" id="Shape" fill-opacity="0.634227808" fill="#666666" fill-rule="nonzero" transform="translate(88.525576, 133.357237) rotate(30.000000) translate(-88.525576, -133.357237) "></path>
                            <path d="M143.444264,162.501923 L48.8640447,108.491724 C41.1793689,104.10556 29.2388869,108.652429 29.0692001,119.78821 L27.3800446,230.63985 C27.2278136,240.630085 38.1695846,246.485645 46.839575,241.348521 L143.10895,184.507079 C151.696394,179.451096 151.908616,167.302565 143.444264,162.501923 Z" id="Shape" fill-opacity="0.7" fill="#D0D0D0" fill-rule="nonzero" transform="translate(88.525576, 175.043903) rotate(30.000000) translate(-88.525576, -175.043903) "></path>
                            <g id="Shape" fill-rule="nonzero" transform="translate(88.525576, 216.730570) rotate(30.000000) translate(-88.525576, -216.730570) ">
                                <use fill="black" fill-opacity="1" filter="url(#filter-5)" xlink:href="#path-4"></use>
                                <use fill="#FFFFFF" xlink:href="#path-4"></use>
                            </g>
                        </g>
                    </g>
                </g>
            </g>
        </g>
    </g>
</svg>