<?xml version="1.0" encoding="UTF-8"?>
<svg width="100px" height="100px" viewBox="0 0 100 100" version="1.1" xmlns="http://www.w3.org/2000/svg" xmlns:xlink="http://www.w3.org/1999/xlink">
    <!-- Generator: Sketch 52.5 (67469) - http://www.bohemiancoding.com/sketch -->
    <title>visualizeua</title>
    <desc>Created with Sketch.</desc>
    <defs>
        <path d="M55.5734375,75 C54.709375,75 54.0109375,74.3015625 54.0109375,73.4375 L54.0109375,71.29375 C54.0109375,70.4296875 54.709375,69.73125 55.5734375,69.73125 C56.4375,69.73125 57.1359375,70.4296875 57.1359375,71.29375 L57.1359375,73.4375 C57.1359375,74.3015625 56.4375,75 55.5734375,75 Z M57.8828125,71.8828125 L57.4171875,71.88125 L56.875,71.8796875 C51.0828125,71.8796875 46.55625,69.909375 43.4203125,66.025 C42.878125,65.353125 42.9828125,64.3703125 43.653125,63.828125 C44.3234375,63.2859375 45.3078125,63.3921875 45.85,64.0625 C48.3640625,67.175 52.0734375,68.7546875 56.875,68.7546875 L57.4328125,68.75625 C59.784375,68.79375 60.265625,68.6796875 60.840625,67.61875 C62.5703125,64.4171875 63.6609375,61.1671875 64.0734375,57.9578125 C64.184375,57.1015625 64.9734375,56.5140625 65.8234375,56.6078125 C66.6796875,56.71875 67.284375,57.5015625 67.1734375,58.3578125 C66.7078125,61.9484375 65.503125,65.5640625 63.5875,69.10625 C62.175,71.7171875 60.021875,71.8828125 57.8828125,71.8828125 Z M34.375,75 C33.5125,75 32.8125,74.3015625 32.8125,73.4375 C32.8125,69.3015625 31.5078125,66.7765625 29.8546875,63.58125 C27.6921875,59.4015625 25,54.196875 25,43.75 C25,33.0609375 33.2578125,25 44.20625,25 C57.7765625,25 65.284375,29.4984375 67.15625,38.753125 C67.3265625,39.6 66.7796875,40.4234375 65.934375,40.59375 C65.09375,40.76875 64.265625,40.21875 64.0921875,39.371875 C62.540625,31.6984375 56.221875,28.125 44.20625,28.125 C35.0390625,28.125 28.125,34.8421875 28.125,43.75 C28.125,53.4359375 30.51875,58.0640625 32.6296875,62.1453125 C34.33125,65.434375 35.9375,68.540625 35.9375,73.4375 C35.9375,74.3015625 35.2375,75 34.375,75 Z M64.84375,59.375 L49.690625,59.375 C46.9265625,59.375 45.0359375,57.9203125 43.36875,56.6390625 C42.00625,55.590625 40.8296875,54.6875 39.378125,54.6875 L28.125,54.6875 C27.2625,54.6875 26.5625,53.9890625 26.5625,53.125 C26.5625,52.2609375 27.2625,51.5625 28.125,51.5625 L39.378125,51.5625 C41.8921875,51.5625 43.6890625,52.94375 45.271875,54.1609375 C46.7296875,55.2828125 47.9890625,56.25 49.690625,56.25 L64.84375,56.25 C69.575,56.25 71.875,53.69375 71.875,48.4375 L71.875,44.596875 C71.875,43.6640625 71.5609375,40.625 67.5125,40.625 L49.6859375,40.625 C47.94375,40.625 46.7359375,41.5796875 45.3359375,42.684375 C43.7765625,43.915625 42.0078125,45.3125 39.371875,45.3125 L26.5625,45.3125 C25.7,45.3125 25,44.6125 25,43.75 C25,42.8875 25.7,42.1875 26.5625,42.1875 L39.371875,42.1875 C40.921875,42.1875 42.0140625,41.325 43.3984375,40.23125 C45.0203125,38.9515625 46.8578125,37.5 49.6859375,37.5 L67.5125,37.5 C72.6859375,37.5 75,41.0640625 75,44.596875 L75,48.4375 C75,55.3875 71.2984375,59.375 64.84375,59.375 Z M53.1265625,53.90625 C52.5375,53.90625 51.975,53.571875 51.709375,53.0046875 C50.2953125,49.975 50.2953125,46.9015625 51.709375,43.8703125 C52.075,43.0890625 53.00625,42.7515625 53.7859375,43.115625 C54.5671875,43.4796875 54.90625,44.4109375 54.540625,45.1921875 C53.521875,47.375 53.521875,49.5 54.540625,51.6828125 C54.9046875,52.465625 54.5671875,53.3953125 53.7859375,53.759375 C53.571875,53.859375 53.3484375,53.90625 53.1265625,53.90625 Z" id="path-1"></path>
        <filter x="-6.0%" y="-6.0%" width="112.0%" height="112.0%" filterUnits="objectBoundingBox" id="filter-2">
            <feOffset dx="0" dy="0" in="SourceAlpha" result="shadowOffsetOuter1"></feOffset>
            <feGaussianBlur stdDeviation="1" in="shadowOffsetOuter1" result="shadowBlurOuter1"></feGaussianBlur>
            <feColorMatrix values="0 0 0 0 0   0 0 0 0 0   0 0 0 0 0  0 0 0 0.3 0" type="matrix" in="shadowBlurOuter1"></feColorMatrix>
        </filter>
    </defs>
    <g id="visualizeua" stroke="none" stroke-width="1" fill="none" fill-rule="evenodd">
        <rect id="Rectangle" fill="#951D31" x="0" y="0" width="100" height="100"></rect>
        <g id="Shape" fill-rule="nonzero">
            <use fill="black" fill-opacity="1" filter="url(#filter-2)" xlink:href="#path-1"></use>
            <use fill="#FFFFFF" xlink:href="#path-1"></use>
        </g>
    </g>
</svg>