<?xml version="1.0" encoding="UTF-8"?>
<svg width="100px" height="100px" viewBox="0 0 100 100" version="1.1" xmlns="http://www.w3.org/2000/svg" xmlns:xlink="http://www.w3.org/1999/xlink">
    <!-- Generator: Sketch 52.5 (67469) - http://www.bohemiancoding.com/sketch -->
    <title>vocalfocals</title>
    <desc>Created with Sketch.</desc>
    <defs>
        <path d="M79.7469465,46.1499626 C79.7086539,46.108105 79.6577788,46.0864632 79.613866,46.0529938 C79.5906304,46.030597 79.5759508,46.0022865 79.5489824,45.9828676 L63.6474383,34.5002831 C61.9563558,33.2796168 59.72104,33.2044576 57.951443,34.3070166 L53.5975766,37.0214724 C53.2754656,37.2221207 53.1774902,37.6462335 53.3781385,37.9683444 C53.5787868,38.2904554 54.0022285,38.3884308 54.3250105,38.1877825 L58.6788769,35.4733266 C59.9726892,34.6667071 61.6067313,34.7224055 62.8435031,35.6142502 L77.0175175,45.8493677 C74.1971593,45.8719741 69.0519401,46.0103812 63.1984962,46.6304448 C58.472189,47.1303878 55.8469847,47.6867003 53.9304245,48.0933653 C52.3587916,48.4262134 51.3199837,48.6463226 49.9999999,48.6463226 C48.6800161,48.6463226 47.6412082,48.4262134 46.0695752,48.0933655 C44.153015,47.6867004 41.5278107,47.1303879 36.8015035,46.6304449 C30.9447882,46.0101297 25.7978913,45.8718484 22.9785816,45.8493258 L37.1531413,35.6142502 C38.3899132,34.7230766 40.0232841,34.6667072 41.3177676,35.4733267 L45.6709629,38.1877825 C45.9944159,38.3884308 46.4165155,38.2904554 46.6178349,37.9683445 C46.8184832,37.6462335 46.7205078,37.2221208 46.3983968,37.0214725 L42.0452015,34.3070166 C40.2742623,33.2044577 38.0396176,33.2796169 36.3492061,34.5002832 L20.446991,45.9828676 C20.4165833,46.0048031 20.3995131,46.0363011 20.373803,46.0619693 C20.334378,46.0930481 20.2877809,46.1119636 20.2530534,46.1499627 C20.0738791,46.3452425 19.9826144,46.6116551 20.0027463,46.8834362 L20.2523823,50.1924552 C20.2886198,50.6816612 20.5697958,51.0943659 20.9865268,51.2695137 C21.5750504,51.5171365 21.8662924,52.0378825 21.9394384,52.1875299 L21.9649389,52.3197296 C22.9252322,57.2654748 24.7116058,66.4704664 35.3332146,66.4704664 C45.4065636,66.4704664 47.7975664,59.0095714 48.3579053,55.8012121 C48.6316996,54.2336055 49.8671293,54.1611305 49.9926183,54.1577752 C50.1328708,54.1611305 51.3683005,54.2336055 51.6420948,55.8012121 C52.2024337,59.0095714 54.5934364,66.4704664 64.6667855,66.4704664 C75.2883941,66.4704664 77.0747678,57.2654748 78.0350611,52.3197296 L78.0605616,52.188201 C78.1370629,52.032514 78.4276339,51.5157944 79.0134732,51.2695137 C79.4302043,51.0943659 79.7113803,50.6816611 79.7476178,50.1931263 L79.9972537,46.8820941 C80.0173855,46.611655 79.9261207,46.3452424 79.7469465,46.1499626 Z" id="path-1"></path>
        <filter x="-6.7%" y="-12.1%" width="113.3%" height="124.3%" filterUnits="objectBoundingBox" id="filter-2">
            <feMorphology radius="1" operator="dilate" in="SourceAlpha" result="shadowSpreadOuter1"></feMorphology>
            <feOffset dx="0" dy="0" in="shadowSpreadOuter1" result="shadowOffsetOuter1"></feOffset>
            <feMorphology radius="1" operator="erode" in="SourceAlpha" result="shadowInner"></feMorphology>
            <feOffset dx="0" dy="0" in="shadowInner" result="shadowInner"></feOffset>
            <feComposite in="shadowOffsetOuter1" in2="shadowInner" operator="out" result="shadowOffsetOuter1"></feComposite>
            <feGaussianBlur stdDeviation="1" in="shadowOffsetOuter1" result="shadowBlurOuter1"></feGaussianBlur>
            <feColorMatrix values="0 0 0 0 0   0 0 0 0 0   0 0 0 0 0  0 0 0 0.3 0" type="matrix" in="shadowBlurOuter1"></feColorMatrix>
        </filter>
    </defs>
    <g id="vocalfocals" stroke="none" stroke-width="1" fill="none" fill-rule="evenodd">
        <rect id="Rectangle" fill="#0175D9" x="0" y="0" width="100" height="100"></rect>
        <g id="Path">
            <use fill="black" fill-opacity="1" filter="url(#filter-2)" xlink:href="#path-1"></use>
            <use stroke="#FFFFFF" stroke-width="2" xlink:href="#path-1"></use>
        </g>
    </g>
</svg>